<?xml version="1.0"  encoding="UTF-8" standalone="no"?> <svg id="Layer_1" color='#616a6f' data-name="Layer 1" xmlns="http://www.w3.org/2000/svg" viewBox="0 0 128 128"><defs><style>.cls-1{fill:#2d3e50;} </style></defs><title>n</title><path class="cls-1" d="M43.23361,56.33422H84.76882L87.14858,49.786l12.244-33.66491s-.56618.00313-1.5367.03113c-.74661.02174-2.97706.05906-4.13115.12132V7.27406H86.122v9.81765l-22.12079,12.3-22.12079-12.3V7.27406H34.27768v8.99952c-1.15409-.06225-3.38453-.09958-4.13115-.12132-.97052-.028-1.5367-.03113-1.5367-.03113L40.85386,49.786Z"/><path class="cls-1" d="M126.24033,119.97573,87.01011,63.49031H82.45178a176.30908,176.30908,0,0,1,5.356,17.749,3.43252,3.43252,0,0,1-2.48809,4.15949,3.53329,3.53329,0,0,1-.8357.10445,3.44164,3.44164,0,0,1-3.32379-2.59254c-2.621-8.84128-3.08638-11.27245-5.92583-19.42044H67.42824V87.45958a3.42824,3.42824,0,0,1-6.85648,0V63.49031H52.76563c-2.83946,8.148-3.30484,10.57916-5.92583,19.42044A3.44164,3.44164,0,0,1,43.516,85.50329a3.53329,3.53329,0,0,1-.8357-.10445,3.43252,3.43252,0,0,1-2.48809-4.15949,176.30908,176.30908,0,0,1,5.356-17.749H40.98989L1.75967,119.97573a.47646.47646,0,0,0,.38933.75021H125.851A.47646.47646,0,0,0,126.24033,119.97573ZM30.92358,109.85244a4.02655,4.02655,0,1,1,4.02653-4.02658A4.0347,4.0347,0,0,1,30.92358,109.85244Zm22.05095,0a4.02655,4.02655,0,1,1,4.02653-4.02658A4.02863,4.02863,0,0,1,52.97453,109.85244Zm22.05095,0a4.02655,4.02655,0,1,1,4.02653-4.02658A4.02859,4.02859,0,0,1,75.02547,109.85244Zm22.05095,0a4.02655,4.02655,0,1,1,4.02653-4.02658A4.02863,4.02863,0,0,1,97.07642,109.85244Z"/></svg>