<?xml version="1.0" encoding="utf-8"?>
<!-- Generator: Adobe Illustrator 27.0.0, SVG Export Plug-In . SVG Version: 6.00 Build 0)  -->
<svg version="1.1" id="Layer_1" xmlns="http://www.w3.org/2000/svg" xmlns:xlink="http://www.w3.org/1999/xlink" x="0px" y="0px"
	 viewBox="0 0 64 64" style="enable-background:new 0 0 64 64;" xml:space="preserve">
<path d="M40.3789062,18.9755859H36.46875v-5.3555298c0-0.001709,0.0009766-0.0031128,0.0009766-0.0048218
	S36.46875,13.6121216,36.46875,13.6104126V8.9589844c0-0.5527344-0.4472656-1-1-1s-1,0.4472656-1,1v3.65625h-2.8339844V7.2851562
	c0-0.5527344-0.4472656-1-1-1s-1,0.4472656-1,1v5.3300781h-2.5810547v-3.65625c0-0.5527344-0.4472656-1-1-1s-1,0.4472656-1,1
	v3.65625h-2.8632812c-0.5527344,0-0.9931641,0.4472656-0.9931641,1s0.4541016,1,1.0068359,1h2.8496094v4.3603516H20.890625
	c-0.5527344,0-1,0.4472656-1,1s0.4472656,1,1,1h4.1630859v4.3310547h-2.8623047c-0.5527344,0-1,0.4472656-1,1s0.4472656,1,1,1
	h2.8623047v3.6865234c0,0.5527344,0.4472656,1,1,1s1-0.4472656,1-1v-3.6865234h2.5810547v5.359375c0,0.5527344,0.4472656,1,1,1
	s1-0.4472656,1-1v-5.359375H34.46875v3.6865234c0,0.5527344,0.4472656,1,1,1s1-0.4472656,1-1v-3.6865234h2.6123047
	c0.5527344,0,1-0.4472656,1-1s-0.4472656-1-1-1H36.46875v-4.3310547h3.9101562c0.5527344,0,1-0.4472656,1-1
	S40.9316406,18.9755859,40.3789062,18.9755859z M34.46875,14.6152344v4.3603516h-2.8339844v-4.3603516H34.46875z
	 M27.0537109,14.6152344h2.5810547v4.3603516h-2.5810547V14.6152344z M27.0537109,25.3066406v-4.3310547h2.5810547v4.3310547
	H27.0537109z M34.46875,25.3066406h-2.8339844v-4.3310547H34.46875V25.3066406z"/>
<path d="M42.1835938,5.0800781c-0.9679565,0-1.8795776,0.2460327-2.6756592,0.6787109
	C36.9796753,3.3375244,33.8630981,2,30.6347656,2c-7.9609375,0-14.4375,7.9570312-14.4375,17.7382812
	c0,7.5546875,3.8935547,14.2900391,9.6855469,16.7578125c0.9912109,0.4257812,1.6318359,1.3691406,1.6318359,2.4023438v8.5683594
	c-0.5739746,0.4970093-0.9453125,1.2218628-0.9453125,2.0390625V61c0,0.5527344,0.4472656,1,1,1h6.1308594
	c0.5527344,0,1-0.4472656,1-1V49.5058594c0-0.8171997-0.3713379-1.5420532-0.9453125-2.0390625v-8.5683594
	c0-1.0341797,0.640625-1.9765625,1.6289062-2.4013672c5.7949219-2.46875,9.6884766-9.2041016,9.6884766-16.7587891
	c0-1.3684692-0.1321411-2.7144165-0.380188-4.0180664c1.8411865-0.923645,3.1106567-2.8244629,3.1106567-5.0209961
	C47.8027344,7.6005859,45.2822266,5.0800781,42.1835938,5.0800781z M32.7001953,60h-4.1308594V49.5058594
	c0-0.390625,0.3183594-0.7089844,0.7099609-0.7089844h2.7109375c0.3916016,0,0.7099609,0.3183594,0.7099609,0.7089844V60z
	 M43.0722656,19.7382812c0,6.7636719-3.4042969,12.7597656-8.4746094,14.9199219
	c-1.7265625,0.7412109-2.8427734,2.40625-2.8427734,4.2402344v7.8984375h-2.2402344v-7.8984375
	c0-1.8339844-1.1162109-3.4980469-2.8457031-4.2412109c-5.0673828-2.1591797-8.4716797-8.1552734-8.4716797-14.9189453
	C18.1972656,11.0605469,23.7763672,4,30.6347656,4c2.62854,0,5.1885376,1.0710449,7.3087158,3.0224609
	c-0.8569946,0.9865723-1.3800049,2.2704468-1.3800049,3.6767578c0,3.0986328,2.5214844,5.6191406,5.6201172,5.6191406
	c0.1971436,0,0.3917236-0.0106812,0.5836792-0.0305786C42.9679565,17.4076538,43.0722656,18.5634766,43.0722656,19.7382812z
	 M42.1835938,14.3183594c-1.9960938,0-3.6201172-1.6240234-3.6201172-3.6191406S40.1875,7.0800781,42.1835938,7.0800781
	c1.9951172,0,3.6191406,1.6240234,3.6191406,3.6191406S44.1787109,14.3183594,42.1835938,14.3183594z"/>
</svg>
